<svg width="387" height="466" viewBox="0 0 387 466" fill="none" xmlns="http://www.w3.org/2000/svg">
<path d="M211.36 434.264C224.388 434.264 234.95 429.819 234.95 424.334C234.95 418.85 224.388 414.404 211.36 414.404C198.331 414.404 187.77 418.85 187.77 424.334C187.77 429.819 198.331 434.264 211.36 434.264Z" fill="#262626"/>
<path d="M211.59 422.464C226.728 422.464 239 417.298 239 410.924C239 404.551 226.728 399.384 211.59 399.384C196.452 399.384 184.18 404.551 184.18 410.924C184.18 417.298 196.452 422.464 211.59 422.464Z" fill="#D9D9D9"/>
<path d="M211.06 415.134C241.336 415.134 265.88 404.801 265.88 392.054C265.88 379.307 241.336 368.974 211.06 368.974C180.784 368.974 156.24 379.307 156.24 392.054C156.24 404.801 180.784 415.134 211.06 415.134Z" fill="#262626"/>
<path d="M188.14 426.864C188.14 426.864 199.91 465.984 211.39 465.984C222.87 465.984 234.7 426.914 234.7 426.914L188.14 426.854V426.864Z" fill="#262626"/>
<path d="M213.45 401.904C253.446 401.904 285.87 388.253 285.87 371.414C285.87 354.575 253.446 340.924 213.45 340.924C173.453 340.924 141.03 354.575 141.03 371.414C141.03 388.253 173.453 401.904 213.45 401.904Z" fill="#66676B"/>
<path d="M211.56 199.104C226.698 199.104 238.97 193.937 238.97 187.564C238.97 181.191 226.698 176.024 211.56 176.024C196.422 176.024 184.15 181.191 184.15 187.564C184.15 193.937 196.422 199.104 211.56 199.104Z" fill="#D9D9D9"/>
<path d="M211.33 186.624C224.358 186.624 234.92 182.178 234.92 176.694C234.92 171.21 224.358 166.764 211.33 166.764C198.301 166.764 187.74 171.21 187.74 176.694C187.74 182.178 198.301 186.624 211.33 186.624Z" fill="#262626"/>
<path d="M211.56 174.824C226.698 174.824 238.97 169.657 238.97 163.284C238.97 156.911 226.698 151.744 211.56 151.744C196.422 151.744 184.15 156.911 184.15 163.284C184.15 169.657 196.422 174.824 211.56 174.824Z" fill="#66676B"/>
<path d="M211.03 167.494C241.306 167.494 265.85 157.161 265.85 144.414C265.85 131.667 241.306 121.334 211.03 121.334C180.754 121.334 156.21 131.667 156.21 144.414C156.21 157.161 180.754 167.494 211.03 167.494Z" fill="#262626"/>
<path d="M82.5117 64.7925L82.5101 64.8024C76.8425 100.586 101.257 134.189 137.04 139.857L271.08 161.087C306.863 166.754 340.466 142.34 346.134 106.556L346.136 106.546C351.803 70.7626 327.389 37.1596 291.605 31.492L157.566 10.2622C121.782 4.59463 88.1793 29.0087 82.5117 64.7925Z" fill="#D9D9D9" stroke="#66676B" stroke-width="6" stroke-miterlimit="10"/>
<path d="M147.69 124.774C175.525 124.774 198.09 102.209 198.09 74.3741C198.09 46.539 175.525 23.9741 147.69 23.9741C119.855 23.9741 97.2899 46.539 97.2899 74.3741C97.2899 102.209 119.855 124.774 147.69 124.774Z" fill="#262626" stroke="#1D1D1B" stroke-width="7" stroke-miterlimit="10"/>
<path d="M171.78 80.2941C171.16 82.8041 170.11 88.6741 161.97 95.2341C162.04 97.9741 163.46 114.924 164.18 118.224C167.33 117.704 185.64 109.094 192.6 87.8641C175.39 91.9741 172.16 77.9641 171.79 80.2941H171.78Z" fill="#878787"/>
<path d="M124.64 68.7542C124.64 68.7542 129.79 62.5942 138.24 58.8742C137.01 50.1442 132.36 32.6542 131.89 30.5342C126.58 31.7342 108.52 40.9342 102.91 61.2642C119.84 57.2242 124.64 68.7542 124.64 68.7542Z" fill="#878787"/>
<path d="M171.311 82.6271C173.104 71.3083 163.542 60.388 149.954 58.2358C136.366 56.0837 123.897 63.5148 122.104 74.8336C120.312 86.1524 129.874 97.0728 143.462 99.2249C157.05 101.377 169.518 93.946 171.311 82.6271Z" fill="black"/>
<path d="M135.343 68.617C138.995 66.7578 141.281 63.926 140.45 62.292C139.618 60.658 135.983 60.8405 132.331 62.6996C128.679 64.5588 126.393 67.3906 127.225 69.0246C128.057 70.6586 131.691 70.4761 135.343 68.617Z" fill="#ADADAD"/>
<path opacity="0.7" d="M147.615 86.5197C147.838 85.1124 146.878 83.7908 145.47 83.5679C144.063 83.345 142.742 84.3052 142.519 85.7125C142.296 87.1199 143.256 88.4414 144.663 88.6643C146.071 88.8872 147.392 87.9271 147.615 86.5197Z" fill="white"/>
<path d="M279.82 145.714C307.655 145.714 330.22 123.149 330.22 95.3141C330.22 67.4789 307.655 44.9141 279.82 44.9141C251.985 44.9141 229.42 67.4789 229.42 95.3141C229.42 123.149 251.985 145.714 279.82 145.714Z" fill="#262626" stroke="#1D1D1B" stroke-width="7" stroke-miterlimit="10"/>
<path d="M255.09 93.4941C254.9 96.0741 254.09 101.984 259.8 110.734C258.88 113.324 252.3 128.994 250.59 131.914C247.76 130.444 233 116.604 232.94 94.2641C248.04 103.494 255.44 91.1641 255.07 93.4941H255.09Z" fill="#878787"/>
<path d="M303.5 97.0939C303.5 97.0939 300.51 89.6439 293.62 83.4939C297.49 75.5739 307.31 60.3739 308.41 58.5039C313.09 61.2939 327.43 75.6139 326.48 96.6839C311.63 87.6139 303.5 97.0939 303.5 97.0939Z" fill="#878787"/>
<path d="M304.021 103.661C305.814 92.342 296.252 81.4217 282.664 79.2695C269.075 77.1174 256.607 84.5485 254.814 95.8673C253.021 107.186 262.583 118.106 276.171 120.259C289.76 122.411 302.228 114.98 304.021 103.661Z" fill="black"/>
<path d="M300.957 96.5803C302.253 95.2834 300.954 91.8837 298.056 88.987C295.157 86.0904 291.756 84.7936 290.46 86.0905C289.164 87.3875 290.463 90.7872 293.362 93.6839C296.261 96.5805 299.661 97.8773 300.957 96.5803Z" fill="#ADADAD"/>
<path opacity="0.7" d="M281.273 107.698C281.496 106.291 280.536 104.969 279.129 104.747C277.721 104.524 276.4 105.484 276.177 106.891C275.954 108.299 276.914 109.62 278.322 109.843C279.729 110.066 281.051 109.106 281.273 107.698Z" fill="white"/>
<path d="M290.61 384.804C290.61 384.804 153.78 385.474 137.61 385.474C121.44 385.474 114.56 359.194 114.56 359.194C114.56 359.194 89.3998 250.224 86.0598 232.484C82.7198 214.744 87.6099 187.144 117.5 187.144H310.57C339.49 187.144 340.84 216.304 336.12 237.204L309.57 362.794C309.57 362.794 305.43 384.804 290.6 384.804H290.61Z" fill="#D9D9D9"/>
<path d="M277.94 367.124C277.94 367.124 162.04 367.694 148.34 367.694C134.64 367.694 128.82 345.434 128.82 345.434C128.82 345.434 107.51 253.134 104.68 238.104C101.85 223.074 105.99 199.704 131.31 199.704H294.85C319.35 199.704 320.49 224.404 316.49 242.104L294 348.484C294 348.484 290.49 367.124 277.93 367.124H277.94Z" fill="#002A33" stroke="#1D1D1B" stroke-width="3" stroke-miterlimit="10"/>
<path opacity="0.42" d="M168.52 200.984L129.2 201.204C129.2 201.204 114.51 201.634 108.46 214.164C102.41 226.694 106.08 240.084 106.08 240.084L131.55 348.394L168.51 200.984H168.52Z" fill="white"/>
<path d="M66.1099 279.594C66.1099 279.594 58.4699 281.244 57.9199 286.194C55.3499 285.684 53.3199 288.644 53.3099 290.134C53.2999 291.624 53.7399 306.994 58.8299 309.684C63.4199 309.254 56.8799 293.234 57.4899 291.724C58.0999 290.214 58.7099 290.144 59.5299 290.284C60.3399 290.424 61.2899 291.264 62.5099 291.994C61.7999 293.414 61.8499 294.354 62.0999 295.394C62.3499 296.434 66.8299 312.304 72.3099 312.614C77.1399 312.124 67.9099 297.904 67.4399 296.634C66.9699 295.364 67.8999 293.064 68.6799 293.164C69.4599 293.264 72.6099 293.444 76.2899 290.414C78.6299 289.814 79.7399 290.664 80.0499 291.484C80.3599 292.304 76.7699 309.404 80.1699 309.384C83.5799 309.374 86.3099 296.134 83.1799 287.914C81.4999 285.094 78.4199 285.264 78.4199 285.264C78.4199 285.264 76.2599 277.394 66.1199 279.594H66.1099Z" fill="#262626"/>
<path d="M87.9199 205.024C69.2399 202.244 49.4399 214.864 45.7099 227.834C44.0599 235.244 51.3999 271.064 58.8799 287.674C60.5199 291.314 62.8399 292.924 68.6599 293.184C73.8199 293.414 76.0299 292.114 75.3899 288.954C71.7899 271.094 63.5899 238.304 63.9299 233.124C64.0499 228.574 71.8999 222.684 79.2499 219.104C81.3799 218.064 77.7399 213.414 79.7699 213.194C81.8099 210.704 89.0399 209.804 87.0099 207.264C86.2999 206.384 92.7499 205.764 87.9299 205.054L87.9199 205.024Z" fill="#66676B"/>
<path d="M85.9499 214.994C84.7599 221.534 85.7399 224.624 85.0299 226.524C84.7799 227.174 84.5999 227.744 84.5999 227.744C80.1999 226.944 77.9099 219.174 79.4999 210.394C81.0899 201.614 85.9499 195.134 90.3599 195.934C90.9099 196.034 93.3899 196.134 93.1199 196.404C88.9299 200.754 87.3499 207.304 85.9499 214.994Z" fill="#262626"/>
<path d="M351.581 280.468C351.581 280.468 357.111 284.568 356.311 288.838C358.431 289.328 359.281 292.508 358.921 293.728C358.561 294.948 354.421 307.438 349.791 307.838C345.201 304.498 362.571 289.358 351.311 291.958C352.111 294.868 343.661 306.468 338.601 305.408C334.971 303.268 345.661 294.878 346.351 294.008C347.041 293.128 346.881 290.908 346.241 290.708C343.721 290.918 340.381 282.728 337.821 285.238C337.381 285.798 335.941 301.168 333.301 299.928C330.011 299.618 332.651 277.178 340.621 280.698C340.621 280.698 344.241 274.998 351.581 280.448V280.468Z" fill="#262626"/>
<path d="M335.661 193.258C364.421 205.648 372.451 255.398 356.581 284.728C354.511 287.858 352.411 288.668 347.981 286.878C344.051 285.278 342.691 283.178 343.891 280.178C352.501 249.888 357.201 229.088 332.791 205.558C330.571 204.038 325.701 197.958 323.101 195.988C318.411 192.438 327.831 190.318 335.651 193.258H335.661Z" fill="#66676B"/>
<path d="M327.561 202.978C331.741 210.328 331.901 210.908 333.801 215.488C335.451 219.478 336.911 209.738 331.571 200.258C326.191 190.808 317.901 187.608 318.001 191.828C318.041 193.608 323.401 195.598 327.561 202.968V202.978Z" fill="#262626"/>
<path d="M185.847 225.276C185.847 225.276 149.501 175.559 25.9983 164.592L28.5005 183.019L181.301 229.338L185.848 225.262L185.847 225.276Z" fill="#E1CDBD"/>
<g style="mix-blend-mode:multiply">
<path d="M170.432 212.594C110.772 178.759 33.1734 172.788 27.0239 172.187L28.4992 183.033L181.3 229.352L185.847 225.275C185.847 225.275 185.124 224.272 183.514 222.535C179.529 218.905 175.376 215.402 170.432 212.594Z" fill="#E1CDBD"/>
</g>
<path d="M357.62 191.16C347.506 191.847 337.368 189.562 327.298 188.618C299.494 186.021 271.074 187.345 244.824 194.535C228.545 198.994 212.815 205.038 199.326 213.686C195.241 216.298 191.378 219.144 187.724 222.165C186.469 223.201 185.007 224.219 183.915 225.37L190.084 242.539L360.891 232.217L373.026 187.162C368.49 189.591 363.131 190.78 357.621 191.146L357.62 191.16Z" fill="#E1CDBD"/>
<g style="mix-blend-mode:screen">
<path d="M225.894 200.899C232.915 198.767 239.994 196.768 247.29 195.243C254.64 193.694 262.131 192.5 269.679 191.637C284.794 189.885 300.145 189.348 315.488 189.861C322.831 190.102 330.172 190.556 337.491 191.264C341.871 191.69 346.262 192.189 350.664 192.376C358.399 192.695 367.884 192.25 372.952 187.212C368.419 189.613 363.095 190.792 357.62 191.161C347.506 191.847 337.368 189.562 327.298 188.619C299.494 186.021 271.074 187.345 244.824 194.536C237.182 196.626 229.646 199.081 222.416 201.975C223.559 201.61 224.735 201.248 225.911 200.901L225.894 200.899Z" fill="#E2D5C0"/>
</g>
<g style="mix-blend-mode:multiply">
<path d="M337.842 196.551C330.397 196.088 322.879 196.058 315.441 195.908C307.622 195.751 299.808 195.723 292.032 196.054C277.001 196.691 261.953 198.662 247.441 201.592C240.079 203.082 232.777 204.862 225.627 206.883C222.193 207.864 218.754 208.901 215.499 210.211C212.531 211.404 209.599 212.772 206.307 213.339C206.131 213.366 205.972 213.209 206.036 213.073C206.839 211.1 208.145 209.315 209.747 207.713C206.148 209.56 202.657 211.544 199.309 213.684C195.224 216.296 191.361 219.141 187.707 222.162C186.452 223.199 184.99 224.217 183.898 225.368L190.067 242.536L360.873 232.215C360.873 232.215 366.994 209.486 370.548 196.312C360.407 199.781 348.509 197.208 337.842 196.551Z" fill="#E1CDBD"/>
</g>
<path d="M366.931 226.387C367.368 221.583 368.061 216.815 368.859 212.043C369.465 208.419 370.056 204.779 371.021 201.215C248.593 188.343 183.916 225.356 183.916 225.356L190.085 242.525L366.772 246.064C366.173 239.502 366.323 232.896 366.95 226.375L366.931 226.387Z" fill="#E1CDBD"/>
<g style="mix-blend-mode:multiply">
<path d="M366.931 226.387C367.368 221.582 368.061 216.815 368.859 212.043C369.085 210.699 369.312 209.342 369.555 208L369.504 207.996C365.61 207.358 361.713 206.762 357.796 206.193C342.212 203.953 326.588 202.533 310.854 202.524C295.345 202.507 279.913 203.548 264.617 205.199C249.532 206.811 234.639 208.981 220.176 212.711C213.059 214.55 205.957 216.618 198.983 218.798C197.467 219.271 195.998 219.791 194.561 220.356C193.264 220.892 192.108 221.412 191.042 221.883C190.517 222.134 190.009 222.386 189.501 222.638C187.648 223.578 185.825 224.563 183.958 225.473L190.083 242.552L366.77 246.092C366.17 239.53 366.32 232.923 366.947 226.403L366.931 226.387Z" fill="#E1CDBD"/>
</g>
<path d="M181.045 227.964C185.841 227.434 191.118 228.866 195.779 230.213C201.064 231.744 203.392 233.774 207.357 237.061C210.338 239.534 212.922 242.383 214.929 245.464L374.643 226.008L374.412 212.334C282.955 192.189 185.31 223.55 185.31 223.55C108.183 173.296 19.7622 175.05 19.7622 175.05L19.177 179.202L24.9189 187.722L159.081 237.76C163.108 232.358 173.532 228.83 181.042 227.993L181.045 227.964Z" fill="#E1CDBD"/>
<g style="mix-blend-mode:multiply">
<path d="M374.414 212.32C366.31 210.532 358.152 209.151 350.03 208.129C361.147 210.518 370.178 213.54 360.074 213.361C344.624 213.079 328.795 214.482 328.795 214.482C334.293 214.442 342.901 216.588 342.901 216.588C304.643 212.7 246.432 221.66 242.762 221.241C239.107 220.838 242.048 219.173 242.048 219.173C253.127 213.019 304.02 211.166 304.02 211.166C266.921 209.783 221.552 219.115 221.552 219.115C232.983 214.044 262.68 210.108 262.68 210.108C239.943 212.589 206.376 220.591 203.601 220.808C200.825 221.025 202.082 219.974 202.082 219.974C204.117 218.553 212.521 216.476 220.404 214.777C198.775 219.176 185.297 223.506 185.297 223.506C180.977 220.698 176.643 218.046 172.26 215.559C175.873 219.468 173.979 220.858 173.979 220.858C154.862 207.145 139.476 205.974 139.476 205.974C158.503 212.661 167.55 221.808 167.55 221.808C142.294 204.71 63.6081 188.965 57.7609 187.325C51.9137 185.686 56.5134 185.606 56.5134 185.606C67.3297 184.245 102.153 190.649 102.153 190.649C73.9748 181.681 38.7047 178.859 34.7449 177.619C32.2338 176.837 36.1207 176.209 39.2893 175.858C27.0571 174.874 19.7479 175.02 19.7479 175.02L19.1627 179.172L24.9045 187.692L159.067 237.731C163.093 232.328 173.517 228.8 181.028 227.963C185.825 227.433 191.101 228.864 195.762 230.211C201.047 231.742 203.376 233.773 207.34 237.059C210.321 239.532 212.905 242.381 214.912 245.462L374.626 226.006L374.395 212.332L374.414 212.32Z" fill="#E1CDBD"/>
</g>
<g style="mix-blend-mode:multiply">
<path d="M36.2686 176.678C36.2686 176.678 36.8702 176.733 38.0243 176.809C39.1587 176.913 40.8444 177.051 42.9745 177.259C45.1032 177.481 47.6948 177.759 50.6594 178.128C52.1337 178.305 53.7086 178.519 55.3707 178.727C57.0316 178.949 58.7758 179.207 60.5888 179.471C62.4005 179.749 64.2981 180.035 66.2447 180.354L69.2163 180.837C70.2227 181.014 71.2463 181.192 72.2699 181.37C76.4159 182.088 80.7591 182.923 85.2494 183.857C89.7199 184.817 94.3426 185.82 99.0014 186.996C100.171 187.287 101.341 187.564 102.509 187.869C103.678 188.174 104.844 188.493 106.012 188.798C108.367 189.396 110.695 190.09 113.045 190.744C115.375 191.425 117.7 192.147 120.01 192.855C122.299 193.602 124.589 194.336 126.86 195.097C131.364 196.642 135.757 198.263 139.936 199.95C142.025 200.808 144.101 201.607 146.047 202.509C148.011 203.397 149.964 204.214 151.804 205.134C155.528 206.879 158.935 208.666 162.057 210.356C163.589 211.234 165.073 212.065 166.474 212.86C167.835 213.709 169.114 214.507 170.327 215.271C170.934 215.652 171.526 216.005 172.064 216.38C172.601 216.756 173.123 217.116 173.629 217.46C174.641 218.149 175.554 218.786 176.384 219.373C178.009 220.557 179.236 221.55 180.096 222.196C180.955 222.857 181.392 223.195 181.392 223.195C181.392 223.195 180.92 222.854 180.041 222.234C179.161 221.614 177.876 220.687 176.213 219.542C175.362 218.981 174.412 218.384 173.381 217.708C172.874 217.377 172.334 217.03 171.778 216.667C171.221 216.304 170.61 215.978 170.002 215.61C168.768 214.887 167.468 214.13 166.086 213.308C164.666 212.54 163.179 211.737 161.643 210.901C158.499 209.266 155.068 207.548 151.338 205.873C149.495 204.995 147.539 204.207 145.553 203.359C143.587 202.498 141.526 201.714 139.437 200.871C138.918 200.667 138.4 200.45 137.865 200.245C137.329 200.04 136.809 199.851 136.273 199.646C135.199 199.25 134.126 198.854 133.036 198.457C131.947 198.045 130.854 197.676 129.745 197.291C128.636 196.906 127.528 196.521 126.402 196.135C124.148 195.376 121.874 194.658 119.585 193.91C117.274 193.217 114.965 192.496 112.651 191.831C110.319 191.178 108.008 190.485 105.672 189.875C104.504 189.57 103.337 189.251 102.186 188.948C101.018 188.643 99.8659 188.353 98.6966 188.062C94.0721 186.889 89.4718 185.832 85.021 184.845C80.5676 183.886 76.2492 182.968 72.1269 182.181C71.1045 181.989 70.0822 181.797 69.0784 181.592C68.072 181.415 67.084 181.226 66.112 181.052C64.1692 180.691 62.2913 180.378 60.4821 180.072C56.8626 179.473 53.5486 178.945 50.6089 178.493C47.6692 178.041 45.084 177.692 42.9776 177.416C40.8539 177.138 39.1918 176.93 38.0428 176.797C36.9109 176.666 36.2934 176.595 36.2934 176.595L36.2686 176.678Z" fill="#E2D5C0"/>
<path d="M31.0575 179.671C31.0575 179.671 31.6776 179.714 32.833 179.776C33.9872 179.852 35.6927 179.965 37.8768 180.149C40.0425 180.346 42.6736 180.571 45.6949 180.888C48.7174 181.191 52.113 181.585 55.8128 182.063C59.5113 182.555 63.5167 183.104 67.7365 183.772C71.9577 184.425 76.3946 185.183 80.9785 186.04C85.5414 186.938 90.2748 187.865 95.0273 188.965C96.2151 189.243 97.4042 189.508 98.6092 189.788C99.7957 190.08 100.999 190.374 102.203 190.668C104.612 191.242 106.997 191.885 109.383 192.514C110.586 192.822 111.768 193.157 112.95 193.506C114.133 193.841 115.314 194.19 116.497 194.524C118.859 195.222 121.184 195.959 123.51 196.682C125.796 197.458 128.105 198.179 130.337 198.979C131.445 199.378 132.552 199.777 133.66 200.176C134.767 200.575 135.859 200.958 136.911 201.394C141.198 203.034 145.271 204.754 149.065 206.477C150.013 206.918 150.945 207.344 151.858 207.782C152.324 207.995 152.773 208.206 153.222 208.417C153.67 208.629 154.099 208.866 154.548 209.078C156.286 209.974 157.979 210.796 159.565 211.65C161.131 212.531 162.65 213.366 164.068 214.162C165.466 214.985 166.776 215.829 168.007 216.58C168.614 216.962 169.222 217.33 169.795 217.694C170.35 218.072 170.889 218.433 171.394 218.792C172.422 219.496 173.369 220.136 174.216 220.724C175.065 221.299 175.757 221.887 176.407 222.358C177.039 222.842 177.574 223.246 177.994 223.582C178.853 224.243 179.323 224.598 179.323 224.598C179.323 224.598 178.852 224.257 177.939 223.62C177.025 222.997 175.743 222.042 174.045 220.894C173.178 220.332 172.211 219.718 171.163 219.041C170.639 218.709 170.099 218.361 169.525 217.997C168.95 217.646 168.34 217.306 167.715 216.937C166.447 216.211 165.132 215.424 163.713 214.641C162.275 213.871 160.754 213.065 159.166 212.225C157.578 211.399 155.865 210.604 154.123 209.749C153.691 209.54 153.244 209.314 152.794 209.117C152.344 208.92 151.878 208.707 151.428 208.51C150.512 208.1 149.562 207.687 148.63 207.261C144.813 205.593 140.732 203.972 136.459 202.362C135.406 201.94 134.313 201.57 133.204 201.186C132.112 200.802 131.004 200.417 129.896 200.018C128.789 199.619 127.641 199.274 126.514 198.901C125.387 198.529 124.242 198.155 123.098 197.781C120.788 197.074 118.462 196.351 116.117 195.655C114.934 195.32 113.751 194.985 112.586 194.652C111.403 194.317 110.22 193.983 109.035 193.676C106.649 193.047 104.282 192.392 101.891 191.819C100.704 191.527 99.5004 191.233 98.3323 190.928C97.1445 190.649 95.9567 190.371 94.7689 190.092C92.4105 189.537 90.047 189.038 87.7204 188.514C85.3925 188.004 83.0767 187.552 80.815 187.077C76.268 186.195 71.856 185.354 67.6584 184.631C63.4622 183.895 59.4804 183.277 55.8042 182.73C52.1267 182.197 48.7388 181.719 45.7411 181.333C42.7447 180.932 40.1201 180.637 37.9595 180.384C35.7976 180.145 34.0986 179.962 32.9482 179.843C31.7966 179.739 31.1779 179.682 31.1779 179.682L31.0575 179.671Z" fill="#E2D5C0"/>
<path d="M88.5062 192.833C88.5062 192.833 88.8671 192.866 89.5718 192.93C90.2594 192.992 91.2734 193.084 92.5772 193.231C93.2278 193.319 93.93 193.411 94.7009 193.509C95.4718 193.608 96.3101 193.727 97.216 193.866C98.1046 194.003 99.062 194.147 100.07 194.31C101.059 194.485 102.116 194.68 103.207 194.879C104.299 195.063 105.438 195.309 106.612 195.544C107.785 195.792 108.993 196.044 110.234 196.313C111.472 196.61 112.744 196.911 114.033 197.227C114.677 197.385 115.339 197.53 116 197.704C116.66 197.877 117.318 198.065 117.979 198.239C119.315 198.602 120.667 198.98 122.037 199.346C123.404 199.754 124.769 200.177 126.152 200.601C128.936 201.422 131.687 202.425 134.462 203.359C135.15 203.606 135.857 203.841 136.528 204.087C137.214 204.348 137.884 204.608 138.569 204.883C139.926 205.404 141.281 205.939 142.621 206.445C143.98 206.938 145.26 207.537 146.544 208.094C147.828 208.651 149.094 209.207 150.345 209.746C151.597 210.272 152.791 210.864 153.969 211.44C155.147 212.016 156.294 212.56 157.404 213.116C159.666 214.159 161.675 215.322 163.557 216.346C164.499 216.857 165.407 217.352 166.265 217.828C166.694 218.066 167.107 218.288 167.519 218.524C167.915 218.745 168.291 218.992 168.668 219.225C170.146 220.127 171.426 220.911 172.477 221.56C173.544 222.211 174.346 222.725 174.921 223.075C175.479 223.424 175.791 223.609 175.791 223.609C175.791 223.609 175.477 223.438 174.883 223.114C174.288 222.79 173.428 222.343 172.322 221.731C171.233 221.135 169.896 220.402 168.377 219.568C167.997 219.363 167.601 219.142 167.187 218.934C166.773 218.726 166.341 218.517 165.892 218.305C165.013 217.87 164.085 217.402 163.141 216.919C161.218 215.963 159.167 214.881 156.884 213.878C155.753 213.363 154.605 212.833 153.423 212.299C152.241 211.766 151.047 211.174 149.793 210.677C148.541 210.151 147.272 209.623 145.986 209.08C145.335 208.808 144.701 208.537 144.05 208.265C143.4 207.979 142.747 207.735 142.077 207.475C140.737 206.97 139.397 206.45 138.04 205.943C137.37 205.683 136.683 205.422 136.014 205.162C135.344 204.903 134.636 204.682 133.948 204.435C131.194 203.474 128.477 202.474 125.709 201.655C124.345 201.218 122.981 200.782 121.633 200.361C120.282 199.968 118.932 199.575 117.614 199.2C116.955 199.012 116.296 198.825 115.655 198.638C115.013 198.452 114.352 198.293 113.709 198.121C112.423 197.776 111.17 197.449 109.952 197.126C108.732 196.816 107.526 196.55 106.374 196.261C105.222 195.971 104.101 195.713 103.013 195.486C101.926 195.246 100.906 195.025 99.9205 194.808C98.9338 194.604 97.9975 194.42 97.1126 194.24C96.2278 194.06 95.4105 193.901 94.6421 193.774C93.8751 193.633 93.1755 193.513 92.5275 193.397C91.246 193.195 90.2396 193.019 89.5547 192.928C88.871 192.823 88.4941 192.775 88.4941 192.775L88.5062 192.833Z" fill="#E2D5C0"/>
<path d="M90.0148 198.355C90.0148 198.355 90.3586 198.386 91.0156 198.403C91.67 198.449 92.6192 198.492 93.8223 198.602C95.0255 198.711 96.5037 198.845 98.1684 199.025C99.8502 199.206 101.737 199.42 103.805 199.736C105.859 200.022 108.097 200.382 110.433 200.793C112.769 201.218 115.239 201.684 117.771 202.241C119.046 202.513 120.318 202.814 121.625 203.117C122.914 203.433 124.236 203.752 125.539 204.098C126.841 204.458 128.18 204.792 129.496 205.182C130.155 205.37 130.814 205.557 131.473 205.745L133.445 206.351C136.075 207.158 138.662 208.061 141.196 208.973C142.472 209.43 143.709 209.926 144.932 210.392C146.153 210.872 147.354 211.393 148.523 211.869C149.691 212.373 150.84 212.889 151.955 213.388C153.07 213.902 154.131 214.424 155.177 214.931C157.249 215.972 159.186 216.972 160.915 217.967C162.682 218.924 164.204 219.914 165.584 220.75C166.924 221.639 168.103 222.4 169.048 223.054C169.975 223.721 170.69 224.254 171.194 224.613C171.682 224.97 171.941 225.164 171.941 225.164C171.941 225.164 171.663 224.982 171.137 224.664C170.613 224.333 169.841 223.865 168.876 223.237C167.89 222.636 166.672 221.929 165.273 221.12C164.563 220.728 163.803 220.318 163.011 219.877C162.614 219.67 162.204 219.42 161.79 219.212C161.359 218.988 160.929 218.764 160.482 218.539C158.712 217.611 156.751 216.68 154.657 215.694C153.608 215.229 152.526 214.733 151.409 214.248C150.291 213.777 149.14 213.289 147.988 212.801C146.8 212.338 145.614 211.846 144.39 211.394C143.769 211.167 143.166 210.942 142.545 210.715C141.925 210.488 141.306 210.247 140.666 210.033C138.148 209.136 135.576 208.263 132.962 207.472L131.007 206.868C130.348 206.68 129.69 206.478 129.049 206.292C127.75 205.904 126.429 205.557 125.145 205.198C123.842 204.853 122.555 204.523 121.269 204.179C119.981 203.863 118.728 203.536 117.471 203.251C114.959 202.668 112.53 202.134 110.216 201.654C107.902 201.188 105.705 200.761 103.658 200.405C101.629 200.036 99.75 199.737 98.0943 199.459C96.436 199.209 94.9828 198.991 93.7847 198.826C92.5854 198.674 91.6439 198.546 90.992 198.472C90.3389 198.413 89.9976 198.354 89.9976 198.354L90.0148 198.355Z" fill="#E2D5C0"/>
<path d="M101.044 205.139C101.044 205.139 102.166 205.184 104.127 205.348C106.087 205.526 108.886 205.809 112.238 206.299C113.915 206.536 115.725 206.829 117.618 207.171C119.527 207.515 121.52 207.895 123.577 208.338C125.634 208.78 127.757 209.257 129.889 209.82C130.955 210.102 132.04 210.371 133.104 210.681C134.186 210.978 135.249 211.288 136.33 211.599C138.472 212.248 140.593 212.938 142.66 213.652C143.702 214.002 144.707 214.392 145.714 214.753C146.718 215.143 147.688 215.529 148.659 215.902C149.611 216.301 150.564 216.686 151.481 217.082C152.38 217.49 153.28 217.884 154.145 218.276C155.858 219.071 157.469 219.842 158.907 220.612C160.366 221.341 161.647 222.111 162.803 222.742C163.938 223.413 164.906 224.013 165.71 224.512C167.262 225.548 168.162 226.127 168.162 226.127C168.162 226.127 167.205 225.6 165.554 224.697C164.71 224.265 163.684 223.731 162.527 223.115C161.93 222.819 161.298 222.52 160.635 222.19C159.972 221.86 159.257 221.525 158.525 221.188C157.047 220.486 155.412 219.783 153.694 219.044C152.825 218.695 151.923 218.315 151.021 217.949C150.1 217.595 149.146 217.225 148.192 216.854C147.219 216.495 146.247 216.137 145.24 215.776C144.231 215.428 143.223 215.081 142.199 214.718C140.148 214.02 138.043 213.346 135.916 212.726C134.853 212.403 133.79 212.093 132.725 211.797C131.661 211.487 130.595 211.206 129.546 210.926C128.497 210.646 127.43 210.378 126.396 210.114C125.345 209.862 124.329 209.599 123.31 209.365C121.273 208.895 119.305 208.432 117.434 208.049C115.562 207.666 113.775 207.305 112.124 206.984C105.531 205.732 101.059 205.169 101.059 205.169L101.044 205.139Z" fill="#E2D5C0"/>
<path d="M338.807 209.383C338.807 209.383 338.22 209.358 337.117 209.301C336.013 209.243 334.405 209.196 332.35 209.123C330.294 209.05 327.804 208.994 324.932 208.932C322.076 208.9 318.839 208.862 315.321 208.855C313.555 208.836 311.733 208.87 309.825 208.881C307.934 208.908 305.975 208.915 303.959 208.973C301.945 209.017 299.878 209.071 297.775 209.136C295.671 209.214 293.515 209.288 291.307 209.372C289.116 209.457 286.886 209.581 284.641 209.69C282.393 209.826 280.112 209.946 277.827 210.107C275.524 210.268 273.224 210.414 270.9 210.615C269.748 210.709 268.579 210.801 267.426 210.896L263.948 211.219C259.301 211.635 254.678 212.152 250.14 212.706C247.879 212.984 245.631 213.305 243.405 213.586C241.192 213.91 239.013 214.238 236.853 214.553C234.707 214.898 232.613 215.248 230.555 215.586C228.495 215.939 226.503 216.312 224.548 216.66C220.649 217.414 216.98 218.132 213.617 218.906C212.767 219.099 211.954 219.28 211.141 219.448C210.327 219.63 209.564 219.83 208.802 220.017C207.279 220.376 205.826 220.727 204.479 221.059C201.78 221.766 199.437 222.377 197.5 222.911C193.656 224.011 191.468 224.636 191.468 224.636C191.468 224.636 193.63 223.923 197.399 222.689C199.306 222.109 201.621 221.424 204.291 220.644C206.991 219.923 209.999 219.046 213.379 218.273C216.73 217.441 220.39 216.651 224.277 215.826C226.236 215.435 228.231 215.034 230.277 214.638C232.338 214.271 234.435 213.893 236.582 213.534C238.726 213.203 240.923 212.863 243.139 212.51C245.368 212.201 247.617 211.866 249.895 211.59C254.452 211.024 259.092 210.494 263.741 210.064L267.237 209.742C268.406 209.649 269.558 209.555 270.728 209.462C273.05 209.276 275.368 209.131 277.67 208.971C279.972 208.811 282.268 208.721 284.514 208.598C286.776 208.505 289.02 208.411 291.21 208.34C295.607 208.2 299.876 208.133 303.916 208.117C305.928 208.101 307.901 208.124 309.807 208.126C311.711 208.157 313.547 208.168 315.311 208.2C318.842 208.251 322.072 208.374 324.936 208.507C327.801 208.639 330.302 208.767 332.353 208.896C334.405 209.012 336.02 209.159 337.122 209.244C338.222 209.344 338.806 209.397 338.806 209.397L338.807 209.383Z" fill="#E2D5C0"/>
<path d="M349.059 212.716C349.059 212.716 348.456 212.675 347.302 212.599C346.165 212.524 344.474 212.441 342.351 212.348C340.212 212.239 337.621 212.145 334.648 212.06C331.675 211.975 328.318 211.911 324.667 211.849C321.015 211.801 317.05 211.768 312.87 211.8C308.692 211.818 304.28 211.929 299.714 212.025C297.438 212.088 295.126 212.162 292.777 212.262C290.445 212.376 288.064 212.444 285.678 212.583C284.493 212.645 283.292 212.707 282.091 212.768C280.888 212.843 279.685 212.919 278.483 212.994C276.079 213.131 273.653 213.323 271.245 213.502C268.821 213.665 266.425 213.902 264.016 214.095C261.623 214.304 259.226 214.555 256.865 214.795C254.501 215.063 252.155 215.319 249.844 215.577C247.531 215.864 245.251 216.155 243.008 216.434C240.777 216.757 238.567 217.053 236.424 217.37C234.28 217.701 232.187 218.036 230.131 218.347C226.065 219.043 222.227 219.702 218.697 220.405C217.814 220.58 216.95 220.743 216.104 220.908C215.256 221.086 214.443 221.254 213.648 221.423C212.04 221.76 210.521 222.077 209.108 222.375C206.274 223.041 203.798 223.597 201.778 224.081C197.734 225.106 195.429 225.678 195.429 225.678C195.429 225.678 197.707 225.018 201.677 223.859C203.684 223.317 206.133 222.687 208.939 221.947C210.356 221.607 211.862 221.247 213.439 220.865C214.235 220.681 215.05 220.485 215.882 220.291C216.73 220.112 217.578 219.934 218.462 219.744C221.964 218.968 225.808 218.238 229.863 217.484C231.905 217.13 234.001 216.766 236.132 216.391C238.276 216.061 240.49 215.722 242.722 215.385C244.968 215.078 247.248 214.773 249.565 214.458C251.878 214.171 254.225 213.901 256.606 213.635C258.985 213.396 261.366 213.129 263.776 212.922C266.187 212.715 268.599 212.48 271.024 212.302C273.449 212.125 275.874 211.947 278.296 211.812C279.515 211.738 280.718 211.663 281.919 211.602C283.121 211.54 284.322 211.479 285.522 211.432C290.309 211.199 295.034 211.074 299.601 210.978C304.166 210.896 308.603 210.887 312.792 210.941C316.982 210.98 320.96 211.072 324.624 211.178C331.952 211.403 338.049 211.815 342.32 212.118C344.455 212.269 346.121 212.435 347.272 212.539C348.407 212.643 349.024 212.713 349.024 212.713L349.059 212.716Z" fill="#E2D5C0"/>
<path d="M342.941 215.201C342.941 215.201 342.371 215.178 341.319 215.125C340.265 215.086 338.71 215.03 336.723 214.963C334.754 214.898 332.349 214.85 329.597 214.813C326.845 214.776 323.744 214.764 320.348 214.754C316.968 214.759 313.293 214.78 309.419 214.883C305.547 214.957 301.461 215.112 297.254 215.255C293.044 215.427 288.691 215.656 284.264 215.936C279.838 216.201 275.37 216.548 270.898 216.938C268.662 217.132 266.441 217.356 264.205 217.551C261.982 217.79 259.777 218.03 257.59 218.257C255.4 218.513 253.227 218.784 251.09 219.03C248.95 219.319 246.847 219.568 244.774 219.877C242.701 220.186 240.664 220.484 238.68 220.772C236.693 221.089 234.758 221.396 232.86 221.693C230.976 222.019 229.145 222.335 227.365 222.657C225.587 222.964 223.891 223.321 222.269 223.628C221.457 223.782 220.646 223.936 219.87 224.092C219.093 224.249 218.332 224.421 217.591 224.567C216.107 224.873 214.694 225.171 213.37 225.434C210.751 226.034 208.452 226.536 206.574 226.99C202.817 227.899 200.672 228.428 200.672 228.428C200.672 228.428 202.79 227.825 206.473 226.768C208.338 226.269 210.608 225.694 213.201 225.007C214.511 224.699 215.911 224.358 217.382 224.008C218.125 223.834 218.869 223.66 219.648 223.476C220.426 223.305 221.222 223.135 222.034 222.968C223.659 222.632 225.358 222.247 227.121 221.91C228.885 221.573 230.72 221.214 232.59 220.844C234.476 220.504 236.412 220.169 238.402 219.824C240.392 219.479 242.429 219.181 244.503 218.858C246.577 218.535 248.699 218.259 250.824 217.955C252.966 217.652 255.138 217.395 257.329 217.125C259.534 216.885 261.74 216.645 263.964 216.393C266.201 216.184 268.423 215.945 270.676 215.752C275.164 215.379 279.649 215.033 284.091 214.784C288.518 214.504 292.9 214.348 297.124 214.206C305.587 213.952 313.504 213.976 320.305 214.082C327.088 214.201 332.746 214.488 336.71 214.735C338.693 214.844 340.24 214.984 341.289 215.065C342.338 215.161 342.905 215.212 342.905 215.212L342.941 215.201Z" fill="#E2D5C0"/>
<path d="M310.837 218.35C310.837 218.35 309.145 218.466 306.18 218.679C304.697 218.786 302.899 218.921 300.842 219.061C298.783 219.215 296.444 219.4 293.913 219.596C291.381 219.807 288.623 220.025 285.725 220.259C282.827 220.493 279.753 220.753 276.59 221.048C275 221.188 273.392 221.34 271.768 221.477C270.142 221.627 268.499 221.79 266.838 221.952C263.518 222.247 260.156 222.624 256.797 222.972C253.438 223.32 250.074 223.725 246.766 224.092C243.47 224.503 240.228 224.904 237.09 225.301C233.965 225.742 230.929 226.162 228.067 226.57C225.218 227.021 222.511 227.443 220.015 227.827C217.532 228.269 215.261 228.659 213.252 229.017C211.23 229.344 209.494 229.755 208.065 230.037C206.634 230.333 205.505 230.557 204.728 230.714C203.951 230.871 203.545 230.948 203.545 230.948C203.545 230.948 203.954 230.843 204.699 230.655C205.462 230.454 206.562 230.17 207.981 229.816C209.398 229.476 211.106 228.992 213.101 228.591C215.098 228.161 217.343 227.669 219.816 227.155C222.301 226.699 224.996 226.22 227.834 225.696C230.685 225.216 233.708 224.752 236.837 224.269C239.979 223.83 243.225 223.387 246.522 222.962C249.832 222.58 253.197 222.162 256.575 221.801C259.95 221.468 263.328 221.093 266.647 220.812C269.967 220.503 273.249 220.247 276.424 220.01C279.601 219.759 282.668 219.569 285.597 219.38C288.51 219.176 291.276 219.058 293.819 218.92C298.919 218.673 303.176 218.548 306.148 218.449C307.643 218.4 308.805 218.392 309.603 218.38C310.402 218.367 310.835 218.364 310.835 218.364L310.837 218.35Z" fill="#E2D5C0"/>
</g>
<path d="M377.476 217.528C377.366 216.836 377.11 216.216 376.731 215.614C376.406 215.385 376.043 215.182 375.659 215.019L206.222 229.528C206.222 229.528 181.399 251.154 165.87 223.702L18.5023 177.095C17.8662 177.421 17.3255 177.841 17.019 178.353L17.0049 178.508L58.7957 326.604L193.256 375.846C193.256 375.846 201.498 384.692 217.871 380.355L371.474 359.293L377.492 217.544L377.476 217.528Z" fill="#5FA2D6"/>
<path d="M16.9648 178.376L58.4984 328.922L192.959 378.163C192.959 378.163 204.03 389.256 218.671 380.315L371.178 361.596L377.302 217.157L205.926 231.831C205.926 231.831 181.103 253.457 165.574 226.005L16.9673 178.348L16.9648 178.376Z" fill="#056F82"/>
<g style="mix-blend-mode:multiply">
<path d="M377.299 217.186L206.657 231.798L206.688 232.028L218.67 380.329L371.175 361.625L377.299 217.186Z" fill="#056F82"/>
</g>
<g style="mix-blend-mode:multiply" opacity="0.5">
<path d="M206.657 231.798L205.924 231.859C205.924 231.859 181.46 253.148 165.916 226.632L192.94 378.175C192.94 378.175 204.011 389.268 218.653 380.327L206.672 232.012L206.641 231.782L206.657 231.798Z" fill="#056F82"/>
</g>
<path d="M165.682 228.828C165.682 228.828 163.434 223.424 178.486 223.129C193.538 222.835 204.007 228.162 206.688 232.028L207.458 237.667L167.798 237.388L165.699 228.829L165.682 228.828Z" fill="#AC8F11"/>
<path d="M165.381 231.372C165.381 231.372 163.134 225.968 178.187 225.66C193.222 225.364 203.707 230.692 206.389 234.559L207.159 240.198L167.498 239.918L165.399 231.36L165.381 231.372Z" fill="#DDA486"/>
<path d="M165.24 232.539C165.24 232.539 162.993 227.135 178.045 226.841C193.097 226.546 203.566 231.873 206.247 235.74L207.017 241.379L167.357 241.099L165.258 232.541L165.24 232.539Z" fill="#858076"/>
<g style="mix-blend-mode:multiply">
<path d="M194.08 241.283L207 241.378L206.23 235.739C204.544 233.312 199.793 230.295 192.749 228.476C193.122 232.757 193.601 237.02 194.079 241.297L194.08 241.283Z" fill="#858076"/>
</g>
<g style="mix-blend-mode:multiply">
<path d="M175.383 226.954C163.262 227.799 165.24 232.539 165.24 232.539L167.339 241.098L178.025 241.174C177.086 236.443 176.358 231.674 175.383 226.954Z" fill="#858076"/>
</g>
<g style="mix-blend-mode:multiply" opacity="0.6">
<path d="M377.299 217.185L205.924 231.859C205.924 231.859 181.1 253.485 165.572 226.033L16.9648 178.376L58.4984 328.921L192.959 378.163C192.959 378.163 204.03 389.256 218.671 380.314L371.178 361.596L377.302 217.157L377.299 217.185ZM79.5451 302.704C57.331 274.446 28.1557 204.17 25.816 195.589C23.4775 186.995 29.7399 187.308 29.7399 187.308C29.7399 187.308 144.591 221.967 152.387 225.616C160.166 229.264 160.213 240.762 160.213 240.762C160.213 240.762 173.096 317.541 173.719 336.237C174.341 354.948 101.742 330.961 79.5451 302.704ZM192.651 342.447C188.958 343.617 186.89 334.138 186.979 333.351C187.068 332.563 171.288 247.806 171.788 243.632C172.289 239.458 179.617 242.923 179.617 242.923C187.514 246.979 187.105 253.008 187.105 253.008C187.105 253.008 198.875 330.979 198.156 336.98C197.421 342.98 192.651 342.447 192.651 342.447ZM363.592 295.754C349.585 323.264 270.84 336.396 253.068 339.157C235.295 341.932 235.301 328.706 235.301 328.706C235.301 328.706 227.034 253.766 227.571 244.041C228.108 234.315 244.573 234.306 244.573 234.306L351.267 224.836L364.541 224.465C370.491 225.929 369.162 231.59 369.162 231.59C369.162 231.59 367.6 278.729 367.669 283.495C367.739 288.26 363.594 295.726 363.594 295.726L363.592 295.754Z" fill="#4593CF"/>
</g>
<g style="mix-blend-mode:multiply">
<path d="M376.558 221.338C376.558 221.338 367.961 331.398 366.047 339.109C364.133 346.82 342.499 349.557 342.499 349.557C342.499 349.557 237.288 366.734 229.032 366.992C220.777 367.251 222.154 355.911 222.154 355.911C222.154 355.911 215.381 248.886 215.478 240.186C215.544 233.742 221.236 231.176 224.194 230.28L205.942 231.847C205.942 231.847 187.218 248.145 172.118 234.47C175.385 240.095 186.948 241.77 191.941 242.707C197.154 243.692 196.519 248.777 196.519 248.777C196.519 248.777 210.499 356.202 210.365 365.31C210.213 374.417 204.537 373.376 204.537 373.376C195.765 374.553 192.485 365.447 192.485 365.447L171.296 257.055C171.296 257.055 185.947 359.014 185.277 364.48C184.606 369.959 175.919 365.817 175.919 365.817C175.919 365.817 76.5827 330.92 70.5671 328.654C64.5516 326.389 61.7355 321.714 61.7355 321.714L39.2943 259.339L58.4985 328.921L192.959 378.163C192.959 378.163 204.03 389.256 218.672 380.314L371.178 361.596L377.141 221.22L376.578 221.311L376.558 221.338Z" fill="#3285C3"/>
</g>
<path d="M218.591 380.25C218.47 380.239 218.391 380.161 218.382 380.061L205.775 232.925C205.768 232.811 205.863 232.72 206.002 232.718C206.14 232.717 206.254 232.798 206.261 232.913L218.869 380.048C218.876 380.162 218.781 380.253 218.642 380.255L218.608 380.252L218.591 380.25Z" fill="#5FA2D6"/>
<g style="mix-blend-mode:screen">
<path d="M193.263 378.249C193.16 378.239 193.063 378.159 193.053 378.073L165.668 225.93C165.644 225.814 165.739 225.723 165.861 225.706C165.984 225.688 166.115 225.771 166.141 225.873L193.526 378.017C193.551 378.133 193.456 378.224 193.333 378.241C193.316 378.239 193.298 378.238 193.281 378.236L193.263 378.249Z" fill="#5FA2D6"/>
</g>
</svg>
